PathFileType	4	(X/Y/Z)	C:/Users/beibeiliu/ov580/test_trc/User2\sequence.14_training_dense_left.trc
DataRate	CameraRate	NumFrames	NumMarkers	Units	OrigDataRate	OrigDataStartFrame	OrigNumFrames
120	120	20	19	mm	120	263	420
Frame#	Time	ThumbCMC			ThumbMCP			ThumbIP			ThumbTip			IndexMCP			IndexPIP			IndexTip			MiddleMCP			MiddlePIP			MiddleTip			RingMCP			RingPIP			RingTip			PinkyMCP			PinkyPIP			PinkyTip			BackHand1			BackHand2			BackHand3	
		X0	Y0	Z0	X1	Y1	Z1	X2	Y2	Z2	X3	Y3	Z3	X4	Y4	Z4	X5	Y5	Z5	X6	Y6	Z6	X7	Y7	Z7	X8	Y8	Z8	X9	Y9	Z9	X10	Y10	Z10	X11	Y11	Z11	X12	Y12	Z12	X13	Y13	Z13	X14	Y14	Z14	X15	Y15	Z15	X16	Y16	Z16	X17	Y17	Z17	X18	Y18	Z18	
262	2.18333	-96.8015	8.7488	106.122	-86.7559	-16.3916	77.621	-83.6462	-35.4347	50.4983	-100.702	-42.15	20.42	-93.048	43.4924	27.9347	-80.303	45.2318	1.52672	-78.8092	45.972	-26.9667	-113.733	21.9552	17.786	-106.148	-13.4075	5.39402	-110.959	-35.9092	39.957	-135.142	11.2938	15.2342	-126.556	-20.756	10.3534	-120.344	-32.9894	41.9593	-162.231	20.6076	26.5742	-158.545	16.7508	-2.24138	-152.752	16.915	-22.1801	-150.835	38.2309	75.2677	-162.508	39.0621	107.863	-124.38	43.3782	97.0829	
263	2.19167	-93.7159	7.69231	106.793	-82.1507	-17.3322	75.4701	-81.9356	-34.3208	44.386	-98.8651	-38.8096	21.2913	-88.58	46.1754	30.3698	-80.0036	49.0507	2.38001	-73.2759	50.14	-21.9187	-112.714	24.9189	17.3992	-106.429	-11.8863	4.64362	-108.313	-34.4158	40.7793	-130.883	15.5458	15.8391	-126.642	-15.0448	7.56685	-118.979	-30.5874	40.8847	-158.832	21.5424	28.066	-154.312	20.123	-2.08155	-151.427	20.0052	-26.3791	-153.138	37.2813	72.6014	-161.581	37.2922	107.412	-119.343	44.7178	95.1405	
264	2.2	-98.7988	8.87254	104.348	-85.7636	-16.1058	78.2244	-83.5527	-32.625	40.3049	-98.8208	-38.4277	19.3764	-94.6618	48.5179	28.8982	-82.1704	51.1524	6.39816	-77.3989	52.6687	-21.8981	-116.889	25.5176	12.3249	-106.712	-7.50946	3.44232	-106.826	-30.9941	35.424	-136.566	17.301	15.5134	-124.992	-13.2577	7.60924	-120.224	-28.2898	38.9122	-162.195	24.0192	24.2992	-159.02	22.8662	0.77242	-152.834	21.4417	-22.6755	-151.376	38.3424	73.531	-161.037	37.4308	104.75	-123.874	46.085	97.8491	
265	2.20833	-96.7756	9.53797	98.0404	-89.1247	-15.1071	74.4447	-85.5204	-32.5202	41.7705	-104.791	-36.7918	18.6535	-99.7516	47.4772	29.817	-88.5452	51.6493	-1.66449	-85.0504	51.1573	-25.7714	-119.922	27.432	14.3899	-115.693	-6.07676	0.454591	-112.579	-30.9827	33.9903	-138.168	15.702	12.6146	-133.418	-15.5522	6.77721	-125.42	-29.4153	36.9266	-166.414	23.4088	27.0653	-163.45	21.5981	-3.23966	-160.219	20.5637	-26.7922	-156.925	39.9506	74.5243	-162.883	39.6968	103.934	-123.105	47.111	95.6539	
266	2.21667	-98.5337	8.89439	96.5283	-92.025	-15.8535	70.9546	-91.4988	-34.5025	40.9341	-111.931	-39.5237	19.089	-104.796	44.5841	25.8861	-95.1449	47.2363	-0.908428	-90.9674	45.9486	-28.6639	-128.536	23.2624	11.8321	-120.523	-11.6831	0.365003	-116.225	-34.4477	36.9599	-144.521	13.6392	13.4351	-138.529	-17.762	6.59946	-130.786	-34.1821	42.5548	-170.007	20.982	25.8286	-172.119	18.0584	-1.71957	-167.128	16.3396	-25.1492	-157.716	39.7033	71.1746	-166.236	36.8286	105.464	-125.77	45.1808	94.4037	
267	2.225	-99.8097	7.14592	96.9488	-91.4684	-20.7936	70.6323	-97.725	-39.9925	44.6244	-117.593	-47.2883	20.2733	-106.703	39.1652	23.1898	-100.015	38.2479	-8.54381	-100.226	35.451	-37.3313	-130.23	15.2415	8.79418	-125.192	-17.582	1.33935	-117.958	-38.9188	36.849	-152.679	7.31267	15.0991	-141.828	-26.0939	9.57839	-134.466	-38.9544	40.5996	-172.521	15.6241	28.9402	-175.465	10.5139	1.72519	-175.067	7.17645	-22.206	-163.747	36.0468	71.4355	-166.914	36.4263	106.921	-128.333	42.5595	92.2589	
268	2.23333	-99.8912	6.21833	98.9115	-96.0922	-22.6921	73.7582	-98.8533	-46.2378	42.8564	-119.803	-53.7253	27.2224	-105.45	31.7255	17.2111	-103.24	29.7243	-6.16102	-103.114	24.7779	-38.9887	-133.756	8.63738	9.96577	-128.945	-29.0593	5.96093	-122.523	-43.7729	38.1278	-154.841	-0.770062	15.3373	-144.637	-30.8497	12.4088	-136.711	-41.9805	42.9451	-179.439	9.83018	29.0193	-177.556	3.20879	3.6585	-177.022	-5.40478	-23.1949	-163.443	34.3206	71.1571	-164.866	38.0123	106.818	-129.849	42.318	86.6036	
269	2.24167	-97.9376	4.91379	103.308	-91.9454	-26.3715	75.9052	-98.3709	-47.4741	49.8095	-120.882	-56.461	26.7407	-106.478	26.3417	21.8672	-104.439	23.1444	-6.68693	-100.57	17.3958	-34.438	-133.616	6.50889	14.1603	-128.311	-29.1689	5.86711	-124.019	-46.2626	42.4686	-148.536	-4.18355	14.858	-142.238	-37.0075	16.0622	-137.936	-44.6245	52.3883	-176.449	7.17534	32.3745	-177.563	-1.11818	4.62654	-177.726	-8.97345	-17.9747	-161.117	30.5429	72.5885	-161.882	39.721	104.775	-125.122	39.8029	91.808	
270	2.25	-102.598	6.49023	104.951	-89.0388	-24.0032	78.8402	-91.3611	-45.8012	51.0347	-109.292	-55.0742	30.2816	-102.955	30.1764	24.0587	-100.798	26.2632	-3.55201	-95.4708	22.0761	-29.8998	-123.184	6.53693	12.6576	-120.1	-27.9195	6.93915	-117.269	-43.8189	47.3253	-143.396	-1.57822	16.2577	-139.666	-33.3633	12.6804	-130.432	-42.17	51.9453	-171.189	7.2011	32.4396	-168.641	1.35647	6.39044	-169.541	-6.34693	-23.3395	-159.631	30.4354	72.0675	-164.239	35.5968	105.04	-127.498	41.6766	92.4689	
271	2.25833	-98.8193	8.82535	107.184	-83.3217	-19.312	80.9815	-82.1748	-39.4273	52.8767	-101.354	-46.2457	31.7954	-96.6038	38.5321	27.3317	-89.7848	37.2058	1.00399	-87.1736	34.8493	-28.7228	-118.335	12.3501	13.8848	-107.791	-19.4691	7.17665	-108.833	-40.2401	41.316	-137.513	5.05754	18.5798	-126.374	-26.2274	12.6989	-125.636	-39.0744	46.4492	-163.123	10.5603	29.8871	-162.956	5.6124	-0.764796	-157.047	-1.39	-25.7782	-158.648	31.4118	70.2185	-163.847	36.1281	106.011	-126.82	40.5116	94.0819	
272	2.26667	-96.7574	10.2643	111.227	-83.684	-12.9175	84.917	-78.091	-31.5908	48.6874	-90.2645	-40.2104	30.1922	-98.6365	45.3222	33.2836	-87.5452	47.8862	8.61719	-83.9768	48.2858	-20.0935	-114.811	21.8016	15.7778	-106.151	-14.0741	8.01289	-103.279	-33.3593	38.2139	-132.49	10.6746	15.9413	-121.826	-15.8678	9.26798	-117.833	-32.2346	43.8431	-162.061	15.8648	31.376	-158.534	13.2146	1.15471	-154.315	8.50298	-21.9375	-158.625	34.2452	76.1398	-163.072	36.4403	109.652	-126.028	42.4635	99.8204	
273	2.275	-95.5628	12.5168	108.383	-82.4004	-10.3227	83.5611	-79.3043	-24.4995	48.4039	-89.3375	-32.6043	25.8312	-93.7945	52.9616	39.6354	-84.5721	57.8816	11.6691	-77.9863	61.287	-16.9596	-113.879	31.2588	19.9703	-106.183	-0.713811	3.59842	-101.306	-27.6252	34.0598	-134.599	17.8761	14.9693	-120.805	-7.8257	7.94178	-117.584	-27.7506	43.0152	-159.787	22.1576	32.0361	-158.408	21.1756	0.288383	-150.658	22.5457	-20.7144	-157.249	37.8283	78.3855	-163.318	35.6382	111.03	-128.378	43.7705	100.529	
274	2.28333	-97.6824	12.6053	107.072	-79.8291	-8.4018	79.2533	-75.9577	-21.4911	42.8642	-89.2842	-27.9063	18.9012	-99.4939	57.2271	37.1372	-90.3418	63.9564	11.4003	-84.4669	69.3808	-17.8776	-115.952	38.0498	19.2524	-103.465	5.8186	3.21921	-102.611	-22.5805	29.5792	-137.642	23.6464	16.2297	-125.973	-3.68052	6.5155	-120.216	-23.5239	37.6124	-163.994	27.286	29.3501	-161.126	26.5847	2.13924	-155.394	29.3671	-23.2866	-154.062	39.7637	78.4689	-161.021	36.62	108.729	-127.473	46.1169	104.528	
275	2.29167	-93.7875	13.3	103.628	-81.4933	-7.19555	73.7132	-80.4091	-18.6005	37.3956	-97.7781	-22.7342	11.3553	-99.7438	62.226	37.457	-92.1196	69.6828	7.4559	-89.8609	74.8813	-18.6297	-121.16	39.3792	17.1276	-109.008	7.63604	1.9045	-111.524	-20.5605	29.1498	-139.73	28.9777	18.9296	-130.615	-1.28237	5.74804	-121.616	-21.5387	38.2104	-164.821	31.0872	32.9018	-163.977	31.7927	4.21409	-160.621	31.5418	-23.5111	-158.665	40.0647	78.855	-164.095	37.5964	110.264	-125.155	46.912	101.474	
276	2.3	-97.871	12.9542	101.054	-85.0243	-6.7662	68.0294	-87.5724	-18.3987	36.0892	-103.988	-22.0978	11.0581	-103.241	63.4511	30.8811	-100.727	69.0939	8.79438	-98.6599	73.2839	-19.6103	-126.735	40.5309	14.7965	-118.242	8.85204	-0.915843	-113.684	-21.1155	27.65	-148.535	27.3204	17.3272	-139.324	-0.473101	4.19893	-126.189	-20.9367	32.0285	-171.733	32.7799	30.4385	-174.664	32.4204	6.43977	-171.769	32.5568	-21.9849	-158.447	43.1672	80.1749	-161.743	37.179	111.005	-125.194	48.4083	101.486	
277	2.30833	-96.4949	11.3964	98.6414	-90.4178	-7.57295	65.1739	-93.7879	-21.0796	31.9583	-110.251	-26.4524	9.64588	-109.603	60.6213	26.319	-105.661	66.7095	0.453748	-105.34	71.8279	-27.8268	-134.504	38.4931	15.6313	-127.862	8.09132	-3.17537	-119.827	-23.3138	27.0521	-151.593	26.2188	16.0545	-147.124	-2.9703	3.4666	-129.13	-22.6227	32.2986	-176.717	29.3291	33.731	-176.532	30.459	5.25366	-182.498	30.682	-19.8394	-163.313	39.7795	79.9038	-161.359	35.6582	113.11	-128.322	45.975	95.725	
278	2.31667	-95.7457	10.5969	95.4852	-88.057	-11.7296	60.8417	-95.0142	-25.1928	28.028	-115.291	-31.5978	6.03899	-112.58	56.8928	22.4269	-112.492	60.2553	-4.74636	-113.614	65.0734	-31.2482	-136.639	34.7346	12.5841	-133.162	0.830468	-4.34404	-124.992	-26.2301	24.504	-159.503	20.8295	17.1201	-151.558	-9.65331	5.05459	-136.177	-29.4471	29.7072	-183.618	24.6204	36.6484	-183.298	25.4221	5.51609	-186.352	23.7144	-16.7223	-164.773	37.3039	79.4564	-160.11	36.8726	114.105	-125.991	45.5798	92.9911	
279	2.325	-95.2361	9.71906	91.2869	-93.9667	-13.7958	62.0874	-97.0615	-31.6881	26.9681	-118.794	-38.2865	8.85114	-117.654	50.4247	18.0246	-115.077	52.7218	-7.43797	-120.682	55.2417	-37.0268	-142.825	26.2735	9.50074	-138.092	-6.99852	-3.31805	-128.243	-32.2986	25.8361	-162.707	14.0198	15.7548	-154.76	-17.1706	6.26206	-137.294	-34.3529	31.8953	-185.263	19.4275	36.4275	-191.324	17.9104	12.4023	-197.016	13.2948	-13.7599	-160.313	37.8423	76.0163	-162.501	37.1667	111.439	-127.243	45.5293	94.1895	
280	2.33333	-94.4271	9.3736	92.2462	-90.8879	-16.4617	61.3535	-101.194	-32.6685	31.7736	-117.075	-44.1286	13.3308	-119.781	43.4918	18.2761	-123.014	44.2715	-8.17525	-124.122	44.9502	-34.998	-140.955	21.5226	9.79944	-139.981	-10.6664	-3.2669	-125.182	-36.6435	27.0355	-163.824	10.3619	18.8018	-153.035	-22.9576	7.66421	-139.494	-41.2253	35.4474	-185.801	14.7886	37.7448	-193.978	9.74979	10.7392	-198.559	3.98755	-13.5593	-162.688	35.403	76.7782	-162.51	35.7329	113.645	-129.116	43.0453	92.3005	
281	2.34167	-97.7142	10.3809	91.1804	-88.0172	-16.6503	61.7281	-95.7047	-36.292	36.8216	-117.295	-44.9989	19.7526	-120.943	38.2989	17.346	-120.42	39.4738	-13.0368	-123.968	37.402	-39.622	-141.927	15.0763	7.60327	-136.189	-20.5116	0.107077	-126.748	-39.8482	30.8197	-160.944	2.09467	15.539	-154.654	-27.9473	9.20336	-132.44	-42.7239	37.2748	-186.968	7.29497	40.2877	-190.88	2.14729	8.69826	-197.596	-8.25949	-15.8037	-162.351	30.8548	74.6316	-161.99	34.3106	110.355	-129.668	41.4288	89.1869	
